<svg width="135" height="22" viewBox="0 0 135 22" fill="none" xmlns="http://www.w3.org/2000/svg">
<g clip-path="url(#clip0_883_137891)">
<path d="M38.6911 21.018H33.5603V0.537506H38.6911V10.5035L42.1658 4.50232H48.0525L42.4488 12.8299L48.0525 21.0162H41.9503L38.6947 15.1043H38.6911V21.0162V21.018Z" fill="#FF7439"/>
<path d="M53.6782 21.4625C52.1554 21.4625 50.9284 21.0664 49.9953 20.2742C49.0641 19.482 48.5967 18.4368 48.5967 17.1406C48.5967 15.8444 48.9801 14.7342 49.7452 13.9122C50.5102 13.0903 51.6587 12.5175 53.1907 12.1958L55.5004 11.7123C56.1413 11.5765 56.6909 11.4036 57.1474 11.1916C57.7554 10.9126 58.1206 10.5388 58.2466 10.072C58.3707 9.60526 58.2265 9.17381 57.8102 8.77584L57.6477 8.62335C57.1985 8.29233 56.4535 8.12682 55.4128 8.12682C54.372 8.12682 53.4225 8.34998 52.4603 8.79444C51.4999 9.2389 50.4901 9.93628 49.4329 10.8847L49.3088 6.53866C50.4573 5.69065 51.593 5.0658 52.7159 4.66412C53.8388 4.26243 55.0202 4.05972 56.26 4.05972C58.5734 4.05972 60.2642 4.52092 61.3342 5.44518C62.4042 6.36943 62.9373 7.83113 62.9373 9.83028V21.018H58.557V18.1839C58.3653 18.6154 58.1443 19.0022 57.896 19.3406C56.8808 20.7558 55.4749 21.4644 53.6763 21.4644L53.6782 21.4625ZM58.3342 13.1349C57.8266 13.5254 57.1602 13.8713 56.3367 14.1782C55.1298 14.6189 54.3245 14.9834 53.921 15.2717C53.5175 15.5599 53.3148 15.9151 53.3148 16.3391C53.3148 16.8561 53.4664 17.2522 53.7713 17.5274C54.0744 17.8027 54.509 17.9403 55.075 17.9403C55.9898 17.9403 56.7585 17.5144 57.3774 16.6627C57.9964 15.811 58.316 14.7789 58.3324 13.5664V13.1349H58.3342Z" fill="#FF7439"/>
<path d="M65.1462 4.50394H69.8644V8.83883C70.0725 8.05033 70.3172 7.35667 70.6002 6.75414C71.4401 4.9577 72.6178 4.05948 74.1333 4.05948C74.5989 4.05948 75.0116 4.12085 75.3695 4.24359C75.7273 4.36632 76.056 4.56345 76.3555 4.83496L76.1802 10.4884C75.8643 10.1834 75.5192 9.95835 75.1449 9.80958C74.7706 9.66266 74.3506 9.58827 73.885 9.58827C72.7456 9.58827 71.871 10.016 71.263 10.8714C70.655 11.7269 70.3263 12.9859 70.277 14.6466V21.0159H65.1462V4.50394Z" fill="#FF7439"/>
<path d="M77.6891 4.50394H82.4072V8.50781C82.6811 7.57611 83.0463 6.78761 83.5046 6.14417C84.4851 4.75499 85.8819 4.05948 87.6932 4.05948C89.1229 4.05948 90.2403 4.53369 91.0474 5.48399C91.555 6.08652 91.9037 6.83597 92.0936 7.73419C92.3182 7.13165 92.5939 6.60351 92.9189 6.14603C93.9013 4.75685 95.3018 4.06134 97.1185 4.06134C98.5427 4.06134 99.6584 4.53183 100.462 5.47283C101.265 6.41382 101.669 7.71931 101.669 9.38743V21.0197H96.5379V12.1472C96.5379 11.063 96.3882 10.2857 96.0869 9.81516C95.7856 9.34466 95.2944 9.11034 94.6097 9.11034C93.8009 9.11034 93.2111 9.35582 92.8441 9.84677C92.4771 10.3377 92.2762 11.143 92.2434 12.2625V21.0215H87.1126V12.1602C87.1126 11.076 86.9628 10.2949 86.6652 9.82073C86.3658 9.34652 85.8728 9.10848 85.1844 9.10848C84.3792 9.10848 83.7931 9.35396 83.4224 9.84491C83.0536 10.3359 82.8527 11.1411 82.818 12.2606V21.0197H77.6873V4.50394H77.6891Z" fill="#FF7439"/>
<path d="M108.329 21.4625C106.806 21.4625 105.579 21.0664 104.646 20.2742C103.715 19.482 103.248 18.4368 103.248 17.1406C103.248 15.8444 103.631 14.7342 104.396 13.9122C105.161 13.0903 106.31 12.5175 107.842 12.1958L110.152 11.7123C110.792 11.5765 111.342 11.4036 111.799 11.1916C112.407 10.9126 112.772 10.5388 112.898 10.072C113.022 9.60526 112.878 9.17381 112.461 8.77584L112.299 8.62335C111.85 8.29233 111.105 8.12682 110.064 8.12682C109.023 8.12682 108.074 8.34998 107.111 8.79444C106.151 9.2389 105.141 9.93628 104.084 10.8847L103.96 6.53866C105.108 5.69065 106.244 5.0658 107.367 4.66412C108.49 4.26243 109.671 4.05972 110.911 4.05972C113.225 4.05972 114.915 4.52092 115.985 5.44518C117.055 6.36943 117.588 7.83113 117.588 9.83028V21.018H113.208V18.1839C113.016 18.6154 112.795 19.0022 112.547 19.3406C111.532 20.7558 110.126 21.4644 108.327 21.4644L108.329 21.4625ZM112.985 13.1349C112.478 13.5254 111.811 13.8713 110.988 14.1782C109.781 14.6189 108.976 14.9834 108.572 15.2717C108.169 15.5599 107.966 15.9151 107.966 16.3391C107.966 16.8561 108.117 17.2522 108.422 17.5274C108.726 17.8027 109.16 17.9403 109.726 17.9403C110.641 17.9403 111.41 17.5144 112.029 16.6627C112.648 15.811 112.967 14.7789 112.984 13.5664V13.1349H112.985Z" fill="#FF7439"/>
<path d="M119.896 0.537506H125.027V8.38159C125.219 7.60239 125.489 6.92361 125.838 6.34711C126.795 4.82218 128.376 4.05972 130.581 4.05972C131.962 4.05972 133.045 4.5172 133.826 5.43216C134.608 6.34711 135 7.61541 135 9.23332V21.018H129.869V12.551C129.869 11.3217 129.7 10.4402 129.358 9.90652C129.017 9.3728 128.46 9.105 127.686 9.105C126.911 9.105 126.276 9.45834 125.801 10.1669C125.326 10.8754 125.069 11.8387 125.027 13.0587V21.0162H119.896V0.537506Z" fill="#FF7439"/>
<path d="M8.21981 16.6866C10.221 16.3724 12.728 15.7959 15.7498 14.7935C18.7699 13.793 21.1509 12.7497 22.9786 11.7939C22.743 9.24611 21.3517 6.89921 19.0419 5.63463C15.2915 3.58156 10.5442 5.1567 8.43709 9.15127C7.13887 11.6116 7.148 14.416 8.22163 16.6866H8.21981Z" fill="#FF7439"/>
<path d="M30.3995 7.84019C30.3995 7.84019 30.3995 7.83833 30.3995 7.83647C30.0215 6.44358 28.1226 5.84291 24.7575 6.04933C23.9175 6.1014 22.5043 6.22228 21.5 6.35246C21.6479 6.50123 21.4909 6.34316 22.2195 7.07773C22.8585 6.99404 24.248 6.95313 24.8287 6.9178C28.3399 6.87503 29.0392 7.84019 29.1506 8.24932C29.2985 8.7942 28.5353 9.75193 26.9869 10.8882C24.8926 12.4466 21.2791 14.3658 16.1027 16.0822C10.9262 17.7987 6.95308 18.3957 4.42785 18.3696C2.56908 18.3641 1.45346 18.0293 1.30556 17.4844C1.08828 16.6848 3.33779 13.9102 6.61894 12.0951L6.78327 11.1504C2.78271 13.2444 -0.458265 16.0153 0.0529877 17.8991C0.191756 18.4068 0.54233 18.7992 1.06819 19.0856C2.49239 19.8648 5.19473 19.8816 8.39371 19.3832C8.91775 19.3013 9.45457 19.2065 10.0005 19.0968C10.4223 19.478 10.8916 19.8165 11.4101 20.101C15.1605 22.1541 19.9079 20.5789 22.015 16.5844C22.3053 16.0339 22.528 15.4667 22.6905 14.8921C23.2036 14.6484 23.6984 14.4011 24.175 14.1501C25.0441 13.6944 25.853 13.2295 26.5797 12.7609C29.4902 10.8882 30.7738 9.23309 30.3995 7.84019Z" fill="#FF7439"/>
</g>
<defs>
<clipPath id="clip0_883_137891">
<rect width="135" height="22" fill="white" transform="translate(-0.000244141)"/>
</clipPath>
</defs>
</svg>
